<mxfile host="Electron" agent="Mozilla/5.0 (Windows NT 10.0; Win64; x64) AppleWebKit/537.36 (KHTML, like Gecko) draw.io/24.7.17 Chrome/128.0.6613.36 Electron/32.0.1 Safari/537.36" version="24.7.17">
  <diagram name="ページ1" id="kCZ1K9Wbg2DakUKIsbAN">
    <mxGraphModel dx="1098" dy="868" grid="1" gridSize="10" guides="1" tooltips="1" connect="1" arrows="1" fold="1" page="1" pageScale="1" pageWidth="827" pageHeight="1169" math="0" shadow="0">
      <root>
        <mxCell id="0" />
        <mxCell id="1" parent="0" />
        <mxCell id="yifaa34ucXqF-eC60_fF-23" value="" style="rounded=0;whiteSpace=wrap;html=1;fillColor=none;strokeColor=none;" parent="1" vertex="1">
          <mxGeometry x="130" y="81" width="300" height="440" as="geometry" />
        </mxCell>
        <mxCell id="yifaa34ucXqF-eC60_fF-21" value="&lt;span style=&quot;font-size: 15px;&quot;&gt;・&lt;/span&gt;&lt;div style=&quot;font-size: 15px;&quot;&gt;&lt;span style=&quot;font-size: 15px;&quot;&gt;・&lt;/span&gt;&lt;/div&gt;&lt;div style=&quot;font-size: 15px;&quot;&gt;&lt;span style=&quot;font-size: 15px;&quot;&gt;・&lt;/span&gt;&lt;/div&gt;" style="text;html=1;align=center;verticalAlign=middle;whiteSpace=wrap;rounded=0;fontStyle=1;fontSize=15;" parent="1" vertex="1">
          <mxGeometry x="260" y="250" width="60" height="45" as="geometry" />
        </mxCell>
        <mxCell id="Q2xhgx171ck7sQDFLJzE-2" value="" style="endArrow=none;html=1;rounded=0;entryX=1;entryY=0.5;entryDx=0;entryDy=-5;entryPerimeter=0;" edge="1" parent="1" target="Q2xhgx171ck7sQDFLJzE-25">
          <mxGeometry width="50" height="50" relative="1" as="geometry">
            <mxPoint x="380" y="145" as="sourcePoint" />
            <mxPoint x="349.9999999999999" y="144.86" as="targetPoint" />
          </mxGeometry>
        </mxCell>
        <mxCell id="Q2xhgx171ck7sQDFLJzE-4" value="" style="endArrow=none;html=1;rounded=0;entryX=0;entryY=0.21666666666666667;entryDx=0;entryDy=3;entryPerimeter=0;" edge="1" parent="1" target="Q2xhgx171ck7sQDFLJzE-25">
          <mxGeometry width="50" height="50" relative="1" as="geometry">
            <mxPoint x="190" y="119" as="sourcePoint" />
            <mxPoint x="250.00000000000006" y="114.91999999999996" as="targetPoint" />
          </mxGeometry>
        </mxCell>
        <mxCell id="Q2xhgx171ck7sQDFLJzE-5" value="a[0]" style="text;html=1;align=center;verticalAlign=middle;whiteSpace=wrap;rounded=0;" vertex="1" parent="1">
          <mxGeometry x="140" y="100" width="50" height="30" as="geometry" />
        </mxCell>
        <mxCell id="Q2xhgx171ck7sQDFLJzE-7" value="b[0]" style="text;html=1;align=center;verticalAlign=middle;whiteSpace=wrap;rounded=0;" vertex="1" parent="1">
          <mxGeometry x="140" y="153" width="50" height="30" as="geometry" />
        </mxCell>
        <mxCell id="Q2xhgx171ck7sQDFLJzE-8" value="out[0]" style="text;html=1;align=center;verticalAlign=middle;whiteSpace=wrap;rounded=0;" vertex="1" parent="1">
          <mxGeometry x="364" y="110" width="50" height="30" as="geometry" />
        </mxCell>
        <mxCell id="Q2xhgx171ck7sQDFLJzE-25" value="Mux" style="shadow=0;dashed=0;align=center;html=1;strokeWidth=1;shape=mxgraph.electrical.abstract.mux2;whiteSpace=wrap;" vertex="1" parent="1">
          <mxGeometry x="260" y="90" width="80" height="120" as="geometry" />
        </mxCell>
        <mxCell id="Q2xhgx171ck7sQDFLJzE-27" value="sel" style="text;html=1;align=center;verticalAlign=middle;whiteSpace=wrap;rounded=0;" vertex="1" parent="1">
          <mxGeometry x="206" y="490" width="30" height="30" as="geometry" />
        </mxCell>
        <mxCell id="Q2xhgx171ck7sQDFLJzE-29" value="" style="endArrow=none;html=1;rounded=0;entryX=0.375;entryY=1;entryDx=10;entryDy=0;entryPerimeter=0;" edge="1" parent="1" target="Q2xhgx171ck7sQDFLJzE-25">
          <mxGeometry width="50" height="50" relative="1" as="geometry">
            <mxPoint x="220" y="490" as="sourcePoint" />
            <mxPoint x="300" y="220" as="targetPoint" />
            <Array as="points">
              <mxPoint x="220" y="220" />
              <mxPoint x="300" y="220" />
            </Array>
          </mxGeometry>
        </mxCell>
        <mxCell id="Q2xhgx171ck7sQDFLJzE-30" value="" style="endArrow=none;html=1;rounded=0;entryX=0;entryY=0.65;entryDx=0;entryDy=3;entryPerimeter=0;" edge="1" parent="1" target="Q2xhgx171ck7sQDFLJzE-25">
          <mxGeometry width="50" height="50" relative="1" as="geometry">
            <mxPoint x="190" y="171" as="sourcePoint" />
            <mxPoint x="260" y="170" as="targetPoint" />
          </mxGeometry>
        </mxCell>
        <mxCell id="Q2xhgx171ck7sQDFLJzE-39" value="" style="endArrow=none;html=1;rounded=0;entryX=1;entryY=0.5;entryDx=0;entryDy=-5;entryPerimeter=0;" edge="1" target="Q2xhgx171ck7sQDFLJzE-44" parent="1">
          <mxGeometry width="50" height="50" relative="1" as="geometry">
            <mxPoint x="380" y="385" as="sourcePoint" />
            <mxPoint x="349.9999999999999" y="384.86" as="targetPoint" />
          </mxGeometry>
        </mxCell>
        <mxCell id="Q2xhgx171ck7sQDFLJzE-40" value="" style="endArrow=none;html=1;rounded=0;entryX=0;entryY=0.21666666666666667;entryDx=0;entryDy=3;entryPerimeter=0;" edge="1" target="Q2xhgx171ck7sQDFLJzE-44" parent="1">
          <mxGeometry width="50" height="50" relative="1" as="geometry">
            <mxPoint x="190" y="359" as="sourcePoint" />
            <mxPoint x="250.00000000000006" y="354.91999999999996" as="targetPoint" />
          </mxGeometry>
        </mxCell>
        <mxCell id="Q2xhgx171ck7sQDFLJzE-41" value="a[15]" style="text;html=1;align=center;verticalAlign=middle;whiteSpace=wrap;rounded=0;" vertex="1" parent="1">
          <mxGeometry x="140" y="340" width="50" height="30" as="geometry" />
        </mxCell>
        <mxCell id="Q2xhgx171ck7sQDFLJzE-42" value="b[15]" style="text;html=1;align=center;verticalAlign=middle;whiteSpace=wrap;rounded=0;" vertex="1" parent="1">
          <mxGeometry x="140" y="393" width="50" height="30" as="geometry" />
        </mxCell>
        <mxCell id="Q2xhgx171ck7sQDFLJzE-43" value="out[15]" style="text;html=1;align=center;verticalAlign=middle;whiteSpace=wrap;rounded=0;" vertex="1" parent="1">
          <mxGeometry x="364" y="350" width="50" height="30" as="geometry" />
        </mxCell>
        <mxCell id="Q2xhgx171ck7sQDFLJzE-44" value="Mux" style="shadow=0;dashed=0;align=center;html=1;strokeWidth=1;shape=mxgraph.electrical.abstract.mux2;whiteSpace=wrap;" vertex="1" parent="1">
          <mxGeometry x="260" y="330" width="80" height="120" as="geometry" />
        </mxCell>
        <mxCell id="Q2xhgx171ck7sQDFLJzE-45" value="" style="endArrow=none;html=1;rounded=0;entryX=0;entryY=0.65;entryDx=0;entryDy=3;entryPerimeter=0;" edge="1" target="Q2xhgx171ck7sQDFLJzE-44" parent="1">
          <mxGeometry width="50" height="50" relative="1" as="geometry">
            <mxPoint x="190" y="411" as="sourcePoint" />
            <mxPoint x="260" y="410" as="targetPoint" />
          </mxGeometry>
        </mxCell>
        <mxCell id="Q2xhgx171ck7sQDFLJzE-46" value="" style="endArrow=none;html=1;rounded=0;entryX=0.375;entryY=1;entryDx=10;entryDy=0;entryPerimeter=0;" edge="1" parent="1" target="Q2xhgx171ck7sQDFLJzE-44">
          <mxGeometry width="50" height="50" relative="1" as="geometry">
            <mxPoint x="220" y="460" as="sourcePoint" />
            <mxPoint x="320" y="470" as="targetPoint" />
            <Array as="points">
              <mxPoint x="300" y="460" />
            </Array>
          </mxGeometry>
        </mxCell>
      </root>
    </mxGraphModel>
  </diagram>
</mxfile>
